#!OML:ASF E:\emotionWalksFemale\Project 1\Capture day 1\Session 1\Female1.ASF
:FULLY-SPECIFIED
:DEGREES
16
root 8.77739 15.5561 21.0875 -179.038 -0.0688102 -179.357
lowerback 9.00848 2.11804 1.94351
upperback -3.76724 3.06721 0.175664
thorax -8.97297 1.36482 -1.40997
lowerneck -4.15133 -3.83276 -8.0487
upperneck 8.55914 -5.44024 7.77233
head 3.65346 -2.69482 3.42491
rclavicle -2.93642e-014 -4.37326e-015
rhumerus -56.2504 -5.95078 -62.5122
rradius 29.8496
rwrist 33.1746
rhand -9.20383 -56.1004
rfingers 7.12502
rthumb 16.7502 -85.3978
lclavicle -2.93642e-014 -4.37326e-015
lhumerus -55.083 16.1969 50.376
lradius 32.3491
lwrist -12.5031
lhand -3.23481 -31.7057
lfingers 7.12502
lthumb 22.4886 -2.99512
rfemur 2.85397 19.3316 27.2008
rtibia 10.657
rfoot -13.3265 -32.3745
rtoes 3.01837
lfemur -5.41507 -22.6973 -22.4487
ltibia 22.4036
lfoot -22.7239 19.1564
ltoes -16.507
17
root 8.77274 15.5571 21.0907 -179.045 0.048014 -179.399
lowerback 9.04928 2.04973 1.93134
upperback -3.73825 3.05301 0.200157
thorax -8.96903 1.39257 -1.38127
lowerneck -4.07744 -3.75266 -8.05098
upperneck 8.39746 -5.31652 7.72267
head 3.5814 -2.63492 3.41885
rclavicle 1.23619e-015 9.93923e-016
rhumerus -56.5618 -5.82175 -63.3554
rradius 29.7679
rwrist 33.1251
rhand -8.58322 -56.4776
rfingers 7.12502
rthumb 17.3476 -85.7234
lclavicle 1.23619e-015 9.93923e-016
lhumerus -55.5542 16.701 50.7815
lradius 31.9927
lwrist -13.1935
lhand -3.05038 -32.1795
lfingers 7.12502
lthumb 22.6656 -3.4905
rfemur 2.77723 19.4727 27.1362
rtibia 10.7865
rfoot -13.6076 -32.3929
rtoes 3.62951
lfemur -5.34011 -22.729 -22.5204
ltibia 22.3099
lfoot -22.897 18.9989
ltoes -14.336
18
root 8.76906 15.5596 21.0941 -179.014 0.176515 -179.396
lowerback 9.06409 2.04277 2.00068
upperback -3.70624 3.05025 0.192929
thorax -8.93902 1.38711 -1.42698
lowerneck -4.13649 -3.6809 -8.02028
upperneck 8.33977 -5.21082 7.72844
head 3.5647 -2.57883 3.42057
rclavicle 8.07563e-017 -9.34288e-015
rhumerus -56.9464 -5.58384 -64.5484
rradius 29.8067
rwrist 32.0337
rhand -9.06445 -56.7827
rfingers 7.12502
rthumb 16.8844 -86.0687
lclavicle 8.07563e-017 -9.34288e-015
lhumerus -55.8279 16.9762 51.411
lradius 31.5904
lwrist -13.8694
lhand -3.04601 -32.4426
lfingers 7.12502
lthumb 22.6698 -3.75409
rfemur 2.64468 19.5033 27.0935
rtibia 10.9127
rfoot -13.6596 -32.2909
rtoes 3.42349
lfemur -5.33574 -22.7371 -22.5195
ltibia 22.2359
lfoot -23.1305 18.8798
ltoes -12.6023
19
root 8.76548 15.559 21.0999 -178.98 0.288376 -179.369
lowerback 9.12999 2.03266 2.12785
upperback -3.69429 3.0491 0.145894
thorax -8.95568 1.37672 -1.55041
lowerneck -4.27217 -3.62996 -7.84248
upperneck 8.36891 -5.13891 7.6574
head 3.58396 -2.53729 3.37111
rclavicle 2.5196e-014 -2.18663e-015
rhumerus -57.4155 -5.62123 -65.5108
rradius 29.7034
rwrist 31.6495
rhand -8.15677 -56.5013
rfingers 7.12502
rthumb 17.758 -85.7104
lclavicle 2.5196e-014 -2.18663e-015
lhumerus -56.0231 17.022 52.1823
lradius 31.3429
lwrist -14.1265
lhand -2.68999 -32.3562
lfingers 7.12502
lthumb 23.0115 -3.70989
rfemur 2.4814 19.5217 27.0748
rtibia 11.0894
rfoot -13.5873 -32.2178
rtoes 2.98898
lfemur -5.35665 -22.7472 -22.4867
ltibia 22.1449
lfoot -23.0379 19.116
ltoes -13.6242
20
root 8.76243 15.5571 21.1051 -178.994 0.302193 -179.341
lowerback 9.225 1.944 2.17188
upperback -3.65672 2.94196 0.210018
thorax -8.97588 1.32356 -1.49265
lowerneck -4.45507 -3.54812 -7.88003
upperneck 8.41788 -5.00324 7.59091
head 3.6178 -2.46811 3.36097
rclavicle -1.5089e-014 6.75868e-015
rhumerus -57.7294 -5.89998 -65.9051
rradius 29.4391
rwrist 32.7115
rhand -9.11016 -56.2824
rfingers 7.12502
rthumb 16.8404 -85.5722
lclavicle -1.5089e-014 6.75868e-015
lhumerus -56.4178 17.2734 53.0116
lradius 31.2367
lwrist -14.356
lhand -2.13871 -32.531
lfingers 7.12502
lthumb 23.5403 -3.95161
rfemur 2.38374 19.5614 27.0995
rtibia 11.3247
rfoot -13.9534 -32.2068
rtoes 4.03907
lfemur -5.30335 -22.7887 -22.4643
ltibia 22.026
lfoot -22.8778 19.2712
ltoes -14.7052
21
root 8.75656 15.5599 21.114 -178.877 0.334105 -179.529
lowerback 9.21108 1.88038 2.03978
upperback -3.63477 2.83847 0.217754
thorax -8.95407 1.28139 -1.39226
lowerneck -4.59517 -3.48817 -8.01523
upperneck 8.40028 -4.89309 7.58764
head 3.63044 -2.41227 3.38595
rclavicle -4.66523e-015 -8.94531e-015
rhumerus -57.9103 -6.2698 -66.2553
rradius 29.1614
rwrist 33.7102
rhand -6.99005 -56.358
rfingers 7.12502
rthumb 18.8804 -85.4617
lclavicle -4.66523e-015 -8.94531e-015
lhumerus -56.678 17.4077 54.1057
lradius 31.1282
lwrist -14.4429
lhand -1.7772 -32.7453
lfingers 7.12502
lthumb 23.8871 -4.21079
rfemur 2.14166 19.5081 26.7983
rtibia 11.4882
rfoot -14.165 -32.0609
rtoes 4.91681
lfemur -5.41887 -22.7959 -22.6318
ltibia 21.939
lfoot -22.8361 19.2441
ltoes -14.1597
22
root 8.74959 15.562 21.1238 -178.737 0.454951 -179.696
lowerback 9.19862 1.88547 1.98588
upperback -3.64077 2.83244 0.157987
thorax -8.95281 1.27931 -1.42408
lowerneck -4.60782 -3.46697 -7.94369
upperneck 8.29964 -4.84645 7.46999
head 3.59426 -2.38917 3.34068
rclavicle 7.647e-015 1.55052e-014
rhumerus -58.1069 -6.62962 -66.8026
rradius 28.8694
rwrist 34.2879
rhand -5.21238 -56.3928
rfingers 7.12502
rthumb 20.5893 -85.3209
lclavicle 7.647e-015 1.55052e-014
lhumerus -56.7723 17.3641 55.2212
lradius 30.9448
lwrist -14.5784
lhand -1.28814 -32.7933
lfingers 7.12502
lthumb 24.356 -4.32101
rfemur 1.8298 19.3133 26.4771
rtibia 11.6162
rfoot -13.7491 -31.8373
rtoes 3.78487
lfemur -5.55129 -22.8078 -22.7832
ltibia 21.8734
lfoot -22.9334 19.2002
ltoes -12.793
23
root 8.74888 15.5598 21.1288 -178.778 0.515201 -179.563
lowerback 9.29119 1.85254 2.08407
upperback -3.59162 2.80849 0.24251
thorax -8.95429 1.26456 -1.38803
lowerneck -4.67016 -3.41637 -7.89696
upperneck 8.24807 -4.75595 7.33764
head 3.57801 -2.34477 3.29642
rclavicle 2.47238e-014 7.55382e-015
rhumerus -58.3055 -6.86832 -67.3605
rradius 28.6115
rwrist 34.7628
rhand -4.7187 -56.2888
rfingers 7.12502
rthumb 21.0637 -85.1648
lclavicle 2.47238e-014 7.55382e-015
lhumerus -56.9418 17.5484 56.2414
lradius 30.7109
lwrist -15.0083
lhand -0.875717 -32.9153
lfingers 7.12502
lthumb 24.7513 -4.4967
rfemur 1.7859 19.3424 26.6331
rtibia 11.7059
rfoot -13.6128 -31.9017
rtoes 2.99324
lfemur -5.49005 -22.8349 -22.6542
ltibia 21.8278
lfoot -23.0302 19.2182
ltoes -12.6055
24
root 8.7502 15.5581 21.134 -178.808 0.590016 -179.443
lowerback 9.37963 1.82372 2.15829
upperback -3.54823 2.78539 0.305394
thorax -8.95955 1.25083 -1.36157
lowerneck -4.72797 -3.36359 -7.84957
upperneck 8.21136 -4.66979 7.24963
head 3.56689 -2.3015 3.26551
rclavicle -1.33993e-014 -1.11319e-014
rhumerus -58.4745 -7.27687 -67.7907
rradius 28.2923
rwrist 35.1022
rhand -4.60124 -55.823
rfingers 7.12502
rthumb 21.1765 -84.6864
lclavicle -1.33993e-014 -1.11319e-014
lhumerus -57.0188 17.5525 57.44
lradius 30.545
lwrist -15.2371
lhand -0.484271 -32.9786
lfingers 7.12502
lthumb 25.1264 -4.61201
rfemur 1.8683 19.5429 26.7933
rtibia 11.5608
rfoot -13.6153 -32.0269
rtoes 2.97334
lfemur -5.52281 -22.7536 -22.5154
ltibia 21.8926
lfoot -22.9287 19.3177
ltoes -13.8895
